<svg width="121" height="120" viewBox="0 0 121 120" fill="none" xmlns="http://www.w3.org/2000/svg">
<g id="Placeholder">
<path id="vector" fill-rule="evenodd" clip-rule="evenodd" d="M50.5007 28.3333C45.8983 28.3333 42.1674 32.0643 42.1674 36.6667C42.1674 41.269 45.8983 45 50.5007 45C55.1031 45 58.8341 41.269 58.8341 36.6667C58.8341 32.0643 55.1031 28.3333 50.5007 28.3333ZM38.8341 36.6667C38.8341 30.2233 44.0574 25 50.5007 25C56.944 25 62.1674 30.2233 62.1674 36.6667C62.1674 43.11 56.944 48.3333 50.5007 48.3333C44.0574 48.3333 38.8341 43.11 38.8341 36.6667ZM75.8364 51.382C75.2283 50.4361 73.8773 50.3515 73.156 51.214L56.0649 71.6488C55.7673 72.0046 55.3348 72.2203 54.8715 72.244C54.4082 72.2677 53.956 72.0972 53.6236 71.7735L42.2118 60.6595C41.4648 59.932 40.2406 60.0614 39.6622 60.929L25.3424 82.4088C24.604 83.5164 25.398 85 26.7291 85H94.3952C95.7138 85 96.5102 83.5413 95.7971 82.4321L75.8364 51.382ZM70.599 49.0755C72.7632 46.4879 76.8162 46.7419 78.6403 49.5795L98.6011 80.6295C100.74 83.9571 98.351 88.3333 94.3952 88.3333H26.7291C22.7356 88.3333 20.3537 83.8826 22.5689 80.5598L36.8887 59.08C38.624 56.4771 42.2964 56.089 44.5374 58.2716L54.6614 68.1312L70.599 49.0755Z" fill="black"/>
</g>
</svg>
